<svg xmlns="http://www.w3.org/2000/svg" version="1.1" xmlns:xlink="http://www.w3.org/1999/xlink" xmlns:svgjs="http://svgjs.com/svgjs" width="1440" height="560" preserveAspectRatio="none" viewBox="0 0 1440 560">
    <g mask="url(&quot;#SvgjsMask1008&quot;)" fill="none">
        <rect width="1440" height="560" x="0" y="0" fill="#0e2a47"></rect>
        <path d="M964.42 494.93 a41.3 41.3 0 1 0 82.6 0 a41.3 41.3 0 1 0 -82.6 0z" stroke="#d3b714"></path>
        <path d="M155.5 359.29a32.59 32.59 0 1 0 63.12 16.28z" stroke="rgba(62, 219, 182, 1)"></path>
        <path d="M1187.24 472.91 a47.6 47.6 0 1 0 95.2 0 a47.6 47.6 0 1 0 -95.2 0z" fill="rgba(62, 219, 182, 1)"></path>
        <path d="M1324.02 506.75L1358.63 506.75L1358.63 514.52L1324.02 514.52z" stroke="rgba(62, 219, 182, 1)"></path>
        <path d="M390.92 84.81 a4.22 4.22 0 1 0 8.44 0 a4.22 4.22 0 1 0 -8.44 0z" stroke="rgba(44, 142, 225, 1)"></path>
        <path d="M1.77 464.42L35.5 464.42L35.5 498.15L1.77 498.15z" stroke="rgba(62, 219, 182, 1)"></path>
        <path d="M379 347.13L424.63 347.13L424.63 392.76L379 392.76z" fill="rgba(44, 142, 225, 1)"></path>
        <path d="M69.97 558.92L76.52 558.92L76.52 589.96L69.97 589.96z" stroke="rgba(44, 142, 225, 1)"></path>
        <path d="M1170.65 218.37 a35.17 35.17 0 1 0 70.34 0 a35.17 35.17 0 1 0 -70.34 0z" stroke="#037b0b"></path>
        <path d="M701.57 142.6L717.01 142.6L717.01 158.04L701.57 158.04z" fill="#d3b714"></path>
        <path d="M1112.12 355.73a27.87 27.87 0 1 0-33.65 44.44z" fill="rgba(62, 219, 182, 1)"></path>
        <path d="M1107.48 246.81a40.55 40.55 0 1 0 27.42-76.33z" fill="rgba(62, 219, 182, 1)"></path>
        <path d="M791.67 208.75L834.5 208.75L834.5 241.07L791.67 241.07z" fill="#d3b714"></path>
        <path d="M258.82 339.16 a9.78 9.78 0 1 0 19.56 0 a9.78 9.78 0 1 0 -19.56 0z" stroke="#d3b714"></path>
        <path d="M279.11 86.58L280.52 86.58L280.52 86.9L279.11 86.9z" fill="#037b0b"></path>
        <path d="M739.92 386.4L757.07 386.4L757.07 403.55L739.92 403.55z" fill="rgba(62, 219, 182, 1)"></path>
        <path d="M353.66 80.95 a9.38 9.38 0 1 0 18.76 0 a9.38 9.38 0 1 0 -18.76 0z" fill="rgba(44, 142, 225, 1)"></path>
        <path d="M1313.88 344.86a30.71 30.71 0 1 0 34.22-50.99z" stroke="rgba(62, 219, 182, 1)"></path>
        <path d="M1331.39 247.15L1351.69 247.15L1351.69 294.28L1331.39 294.28z" stroke="rgba(62, 219, 182, 1)"></path>
        <path d="M625.42 427.65L625.97 427.65L625.97 428.2L625.42 428.2z" fill="#d3b714"></path>
        <path d="M385.23 357.31a9.07 9.07 0 1 0 9.76 15.29z" stroke="rgba(62, 219, 182, 1)"></path>
        <path d="M678.44 341.73a44.51 44.51 0 1 0 88.56-9.12z" fill="#d3b714"></path>
        <path d="M585.51 378.78 a36.95 36.95 0 1 0 73.9 0 a36.95 36.95 0 1 0 -73.9 0z" stroke="rgba(44, 142, 225, 1)"></path>
        <path d="M889.51 325.1L930.23 325.1L930.23 340.95L889.51 340.95z" fill="#037b0b"></path>
        <path d="M497.85 309.42 a29.91 29.91 0 1 0 59.82 0 a29.91 29.91 0 1 0 -59.82 0z" fill="rgba(44, 142, 225, 1)"></path>
        <path d="M1013.84 308.81a49.07 49.07 0 1 0-95.81-21.25z" stroke="rgba(62, 219, 182, 1)"></path>
        <path d="M432.85 334.41 a10.02 10.02 0 1 0 20.04 0 a10.02 10.02 0 1 0 -20.04 0z" stroke="#d3b714"></path>
        <path d="M1411.29 345.51a30.65 30.65 0 1 0-35.29-50.12z" stroke="rgba(44, 142, 225, 1)"></path>
        <path d="M995.94 138.55L1008.71 138.55L1008.71 190.36L995.94 190.36z" fill="#d3b714"></path>
        <path d="M185.99 190.96a49.75 49.75 0 1 0-84.65-52.29z" fill="rgba(27, 111, 114, 1)"></path>
        <path d="M1265.36 285.58L1294.82 285.58L1294.82 315.04L1265.36 315.04z" stroke="rgba(44, 142, 225, 1)"></path>
        <path d="M1345.28 437.97a37.13 37.13 0 1 0 69.82 25.3z" fill="rgba(44, 142, 225, 1)"></path>
        <path d="M282.09 453.78a6.49 6.49 0 1 0-4.83-12.05z" stroke="#d3b714"></path>
    </g>
    <defs>
        <mask id="SvgjsMask1008">
            <rect width="1440" height="560" fill="#ffffff"></rect>
        </mask>
    </defs>
</svg>