<svg xmlns="http://www.w3.org/2000/svg" version="1.1" xmlns:xlink="http://www.w3.org/1999/xlink" xmlns:svgjs="http://svgjs.com/svgjs" width="1440" height="560" preserveAspectRatio="none" viewBox="0 0 1440 560">
    <g mask="url(&quot;#SvgjsMask1000&quot;)" fill="none">
        <rect width="1440" height="560" x="0" y="0" fill="#0e2a47"></rect>
        <path d="M871.6 183.04L922.85 183.04L922.85 234.29L871.6 234.29z" fill="rgba(27, 111, 114, 1)"></path>
        <path d="M660.42 508.73L694.24 508.73L694.24 549.02L660.42 549.02z" stroke="#037b0b"></path>
        <path d="M1055.95 437.29a32.82 32.82 0 1 0-46.84 45.99z" stroke="#037b0b"></path>
        <path d="M702.12 219.02L707.75 219.02L707.75 224.65L702.12 224.65z" fill="#037b0b"></path>
        <path d="M477.32 115.99L523.41 115.99L523.41 162.08L477.32 162.08z" stroke="rgba(44, 142, 225, 1)"></path>
        <path d="M810.73 121.55L859.34 121.55L859.34 128.08L810.73 128.08z" stroke="#037b0b"></path>
        <path d="M1309.46 464.34L1341.47 464.34L1341.47 496.35L1309.46 496.35z" fill="#037b0b"></path>
        <path d="M34.2 512.08a6.32 6.32 0 1 0 6.71 10.71z" stroke="rgba(27, 111, 114, 1)"></path>
        <path d="M1325.49 52.83 a32.51 32.51 0 1 0 65.02 0 a32.51 32.51 0 1 0 -65.02 0z" fill="rgba(27, 111, 114, 1)"></path>
        <path d="M131.79 29.23L149.43 29.23L149.43 31.89L131.79 31.89z" stroke="rgba(27, 111, 114, 1)"></path>
        <path d="M1035.09 440.36a14.37 14.37 0 1 0-2.98 28.59z" stroke="#037b0b"></path>
        <path d="M915.67 458.75a27.28 27.28 0 1 0-3.67 54.43z" stroke="rgba(34, 43, 146, 1)"></path>
        <path d="M635.31 528.39a29.65 29.65 0 1 0-36.4 46.82z" fill="#037b0b"></path>
        <path d="M216.91 266.64L233.24 266.64L233.24 282.97L216.91 282.97z" fill="rgba(44, 142, 225, 1)"></path>
        <path d="M1244.52 32.98L1282.42 32.98L1282.42 59.63L1244.52 59.63z" stroke="#037b0b"></path>
        <path d="M884.82 500.48L885.07 500.48L885.07 530.56L884.82 530.56z" fill="rgba(27, 111, 114, 1)"></path>
        <path d="M448.46 444.05L502.75 444.05L502.75 473.81L448.46 473.81z" stroke="rgba(62, 219, 182, 1)"></path>
        <path d="M169.14 123.29a54.07 54.07 0 1 0 40.52 100.27z" fill="#037b0b"></path>
        <path d="M941.69 111.97L979.39 111.97L979.39 159.86L941.69 159.86z" stroke="rgba(44, 142, 225, 1)"></path>
        <path d="M-41.76 414.12 a50.8 50.8 0 1 0 101.6 0 a50.8 50.8 0 1 0 -101.6 0z" fill="rgba(27, 111, 114, 1)"></path>
        <path d="M709.38 400.45 a43.84 43.84 0 1 0 87.68 0 a43.84 43.84 0 1 0 -87.68 0z" fill="rgba(44, 142, 225, 1)"></path>
        <path d="M196.55 168.26a9.63 9.63 0 1 0-18.51 5.31z" fill="#037b0b"></path>
        <path d="M154.28 433.67L190.99 433.67L190.99 444.42L154.28 444.42z" fill="rgba(34, 43, 146, 1)"></path>
        <path d="M309.91 442.52a6.68 6.68 0 1 0-12.88 3.54z" stroke="rgba(62, 219, 182, 1)"></path>
        <path d="M939.23 521.35L977.85 521.35L977.85 559.97L939.23 559.97z" fill="rgba(34, 43, 146, 1)"></path>
        <path d="M1144.87 411.21L1198.97 411.21L1198.97 465.31L1144.87 465.31z" fill="rgba(62, 219, 182, 1)"></path>
        <path d="M1026.46 457.1L1047.34 457.1L1047.34 477.98L1026.46 477.98z" stroke="rgba(44, 142, 225, 1)"></path>
        <path d="M1224.87 169a41.27 41.27 0 1 0 73.74-37.08z" stroke="rgba(44, 142, 225, 1)"></path>
        <path d="M1362.52 103.24L1368.21 103.24L1368.21 145.42L1362.52 145.42z" fill="rgba(27, 111, 114, 1)"></path>
        <path d="M167.76 556.63 a53.15 53.15 0 1 0 106.3 0 a53.15 53.15 0 1 0 -106.3 0z" stroke="#037b0b"></path>
        <path d="M837.29 30.44L878.14 30.44L878.14 39.2L837.29 39.2z" fill="rgba(34, 43, 146, 1)"></path>
        <path d="M885.13 56.99a13.88 13.88 0 1 0 26.66 7.73z" stroke="rgba(27, 111, 114, 1)"></path>
        <path d="M1427.53 150.54L1453.34 150.54L1453.34 152.59L1427.53 152.59z" stroke="rgba(27, 111, 114, 1)"></path>
    </g>
    <defs>
        <mask id="SvgjsMask1000">
            <rect width="1440" height="560" fill="#ffffff"></rect>
        </mask>
    </defs>
</svg>